<svg id="Layer_1" data-name="Layer 1" xmlns="http://www.w3.org/2000/svg" viewBox="0 0 180 180"><defs><style>.cls-1,.cls-2{fill:#212121;}.cls-1,.cls-2,.cls-3,.cls-4{stroke:#000;}.cls-1,.cls-3{stroke-miterlimit:10;}.cls-1{stroke-width:0.5px;}.cls-3{fill:#f9d613;}.cls-4{fill:#f6d614;}</style></defs><polygon class="cls-1" points="2.46 71.05 89.83 27.14 177.66 71.05 170.63 71.05 89.83 31.25 10.69 71.05 2.46 71.05"/><polygon class="cls-1" points="41.86 47 46.6 42.47 46.6 23.91 41.86 23.91 41.86 47"/><path d="M43.23,117.59a27.52,27.52,0,0,1-13.68-3.25,22.64,22.64,0,0,1-8.94-8.9,26.28,26.28,0,0,1-3.14-13,26,26,0,0,1,3.18-13,22.87,22.87,0,0,1,9-8.91,27.49,27.49,0,0,1,13.61-3.25,35.79,35.79,0,0,1,9.53,1.28,29.3,29.3,0,0,1,8.72,4l-3.79,8.1a33.74,33.74,0,0,0-7.23-3.1,26,26,0,0,0-7.23-1.06,15.37,15.37,0,0,0-7.84,2,13.54,13.54,0,0,0-5.26,5.55,17.81,17.81,0,0,0-1.86,8.32,17.6,17.6,0,0,0,1.86,8.25,13.74,13.74,0,0,0,5.26,5.58,15.1,15.1,0,0,0,7.84,2,15.93,15.93,0,0,0,6.1-1.13A13,13,0,0,0,54,104V97.3H42.5V89H64.62v18.46a22.11,22.11,0,0,1-8.72,7.48A28.44,28.44,0,0,1,43.23,117.59Z"/><path d="M72.94,116.86V68.1h21q9,0,13.83,3.8t4.78,11.39q0,6-3,9.52a15.76,15.76,0,0,1-8.62,4.78L115,116.86H102.5L89.8,98.39H83.59v18.47ZM83.59,90h8.54q5,0,7.34-1.57a5.7,5.7,0,0,0,2.3-5.07c0-2.39-.76-4.1-2.26-5.15s-4-1.57-7.38-1.57H83.59Z"/><path d="M143.66,117.59A27.49,27.49,0,0,1,130,114.34a22.73,22.73,0,0,1-8.95-8.9,26.28,26.28,0,0,1-3.13-13,26,26,0,0,1,3.17-13,23,23,0,0,1,9-8.91,27.46,27.46,0,0,1,13.61-3.25,35.84,35.84,0,0,1,9.53,1.28,29.42,29.42,0,0,1,8.72,4l-3.8,8.1a33.46,33.46,0,0,0-7.22-3.1,26.15,26.15,0,0,0-7.23-1.06,15.41,15.41,0,0,0-7.85,2,13.51,13.51,0,0,0-5.25,5.55,17.81,17.81,0,0,0-1.86,8.32,17.6,17.6,0,0,0,1.86,8.25,13.72,13.72,0,0,0,5.25,5.58,15.13,15.13,0,0,0,7.85,2,15.85,15.85,0,0,0,6.09-1.13,13,13,0,0,0,4.64-3.18V97.3H142.93V89h22.12v18.46a22.14,22.14,0,0,1-8.73,7.48A28.36,28.36,0,0,1,143.66,117.59Z"/><path class="cls-2" d="M40.8,115.16a27.63,27.63,0,0,1-13.68-3.25A22.67,22.67,0,0,1,18.18,103a26.16,26.16,0,0,1-3.14-13,26.11,26.11,0,0,1,3.17-13,22.94,22.94,0,0,1,9-8.9A27.46,27.46,0,0,1,40.8,64.94a35.79,35.79,0,0,1,9.53,1.28,29.3,29.3,0,0,1,8.72,4l-3.8,8.1A33.46,33.46,0,0,0,48,75.27a25.73,25.73,0,0,0-7.23-1.06,15.34,15.34,0,0,0-7.84,2,13.47,13.47,0,0,0-5.26,5.55,19.38,19.38,0,0,0,0,16.57A13.67,13.67,0,0,0,33,103.88a15.07,15.07,0,0,0,7.84,2,15.75,15.75,0,0,0,6.1-1.14,13,13,0,0,0,4.63-3.17V94.87H40.07V86.55H62.19V105a22.08,22.08,0,0,1-8.73,7.48A28.36,28.36,0,0,1,40.8,115.16Z"/><path class="cls-3" d="M70.51,114.42V65.67H91.45q9.06,0,13.83,3.8t4.78,11.38q0,6.06-3,9.53a15.69,15.69,0,0,1-8.61,4.78l14.09,19.26H100.07L87.36,96h-6.2v18.46ZM81.16,87.57H89.7c3.36,0,5.8-.52,7.34-1.57a5.71,5.71,0,0,0,2.29-5.07c0-2.39-.75-4.1-2.26-5.15s-4-1.57-7.37-1.57H81.16Z"/><path class="cls-2" d="M141.23,115.16a27.64,27.64,0,0,1-13.69-3.25A22.67,22.67,0,0,1,118.6,103a26.27,26.27,0,0,1-3.14-13,26,26,0,0,1,3.18-13,22.94,22.94,0,0,1,9-8.9,27.43,27.43,0,0,1,13.61-3.25,35.71,35.71,0,0,1,9.52,1.28,29.19,29.19,0,0,1,8.72,4l-3.79,8.1a33.53,33.53,0,0,0-7.23-3.1,25.66,25.66,0,0,0-7.22-1.06,15.38,15.38,0,0,0-7.85,2,13.51,13.51,0,0,0-5.25,5.55,19.38,19.38,0,0,0,0,16.57,13.72,13.72,0,0,0,5.25,5.58,15.11,15.11,0,0,0,7.85,2,15.7,15.7,0,0,0,6.09-1.14,13,13,0,0,0,4.64-3.17V94.87H140.5V86.55h22.11V105a22.11,22.11,0,0,1-8.72,7.48A28.39,28.39,0,0,1,141.23,115.16Z"/><path d="M13.2,138.34a8.89,8.89,0,0,1-4.42-1.05,7.28,7.28,0,0,1-2.89-2.88,9.08,9.08,0,0,1,0-8.38,7.37,7.37,0,0,1,2.9-2.88,8.87,8.87,0,0,1,4.4-1.05,11.33,11.33,0,0,1,3.08.42,9.28,9.28,0,0,1,2.82,1.31l-1.22,2.61a11,11,0,0,0-2.34-1,8.33,8.33,0,0,0-2.34-.34,4.88,4.88,0,0,0-2.53.64A4.26,4.26,0,0,0,9,127.53a6.19,6.19,0,0,0,0,5.36,4.34,4.34,0,0,0,1.7,1.8,4.79,4.79,0,0,0,2.53.65,5.16,5.16,0,0,0,2-.36,4.32,4.32,0,0,0,1.5-1v-2.17H13v-2.69h7.15v6a7.14,7.14,0,0,1-2.82,2.42A9.27,9.27,0,0,1,13.2,138.34Z"/><path d="M24.84,138.11V125.34H20.26v-3H32.89v3h-4.6v12.77Z"/><path d="M30.86,138.11,37,122.34h3.8l6.14,15.77H43.16l-1-2.77H35.6l-1,2.77Zm5.66-5.6h4.72l-2.33-6.58Z"/><path d="M56.26,138.11V122.34H63a7,7,0,0,1,4.47,1.23,4.4,4.4,0,0,1,1.55,3.68,4.55,4.55,0,0,1-1,3.08,5,5,0,0,1-2.78,1.54l4.55,6.24h-4l-4.11-6h-2v6Zm3.44-8.69h2.76a4.31,4.31,0,0,0,2.38-.51,1.85,1.85,0,0,0,.74-1.64,1.87,1.87,0,0,0-.73-1.66,4.31,4.31,0,0,0-2.39-.51H59.7Z"/><path d="M78.07,138.34a7.47,7.47,0,0,1-3.14-.65,5.33,5.33,0,0,1-2.27-1.93,5.68,5.68,0,0,1-.85-3.2,5.86,5.86,0,0,1,.78-3.07,5.41,5.41,0,0,1,2.1-2,6.2,6.2,0,0,1,3-.7,6.63,6.63,0,0,1,2.94.61,4.77,4.77,0,0,1,2,1.71,4.47,4.47,0,0,1,.71,2.51,4.1,4.1,0,0,1-.12.94,3.91,3.91,0,0,1-.3.86H75.14a2.66,2.66,0,0,0,.52,1.26,2.44,2.44,0,0,0,1.11.77,4.76,4.76,0,0,0,1.63.26,5.37,5.37,0,0,0,1.81-.3,7.08,7.08,0,0,0,1.61-.79l1,2.29A8.1,8.1,0,0,1,80.6,138,8.69,8.69,0,0,1,78.07,138.34Zm-2.93-7.06h4.79a.15.15,0,0,0,0-.09v-.14a1.81,1.81,0,0,0-.23-.93,1.64,1.64,0,0,0-.72-.62,3,3,0,0,0-1.24-.22,2.92,2.92,0,0,0-1.24.25,2.32,2.32,0,0,0-.91.69A2.43,2.43,0,0,0,75.14,131.28Z"/><path d="M86.59,138.11V127h3.09v1.35a3.53,3.53,0,0,1,1.37-1.16,4.74,4.74,0,0,1,2.12-.42,4,4,0,0,1,3,1.07,4.47,4.47,0,0,1,1.09,3.32v6.94H94v-6.45a2.25,2.25,0,0,0-.44-1.54,1.68,1.68,0,0,0-1.35-.51,2.17,2.17,0,0,0-1.69.69,2.93,2.93,0,0,0-.63,2v5.79Z"/><path d="M106.6,138.34a6.71,6.71,0,0,1-3.15-.72,5.35,5.35,0,0,1-2.16-2,6.31,6.31,0,0,1,0-6.08,5.41,5.41,0,0,1,2.15-2,7.32,7.32,0,0,1,6.33,0,5.38,5.38,0,0,1,2.14,2,6.31,6.31,0,0,1,0,6.08,5.36,5.36,0,0,1-2.14,2A6.73,6.73,0,0,1,106.6,138.34Zm0-2.83a2.84,2.84,0,0,0,1.45-.36,2.34,2.34,0,0,0,1-1,3.82,3.82,0,0,0,0-3.15,2.45,2.45,0,0,0-1-1,3.18,3.18,0,0,0-2.9,0,2.45,2.45,0,0,0-1,1,3.82,3.82,0,0,0,0,3.15,2.34,2.34,0,0,0,1,1A2.86,2.86,0,0,0,106.6,135.51Z"/><path d="M130.23,138.34a9,9,0,0,1-4.43-1.05,7.34,7.34,0,0,1-2.89-2.88,9.16,9.16,0,0,1,0-8.38,7.46,7.46,0,0,1,2.91-2.88,8.87,8.87,0,0,1,4.4-1.05,11.39,11.39,0,0,1,3.08.42,9.28,9.28,0,0,1,2.82,1.31l-1.23,2.61a10.91,10.91,0,0,0-2.33-1,8.33,8.33,0,0,0-2.34-.34,4.92,4.92,0,0,0-2.54.64,4.32,4.32,0,0,0-1.7,1.79,6.29,6.29,0,0,0,0,5.36,4.41,4.41,0,0,0,1.7,1.8,4.83,4.83,0,0,0,2.54.65,5.2,5.2,0,0,0,2-.36,4.32,4.32,0,0,0,1.5-1v-2.17H130v-2.69h7.16v6a7.14,7.14,0,0,1-2.82,2.42A9.3,9.3,0,0,1,130.23,138.34Z"/><path d="M144.72,138.34a4,4,0,0,1-2.95-1.07,4.51,4.51,0,0,1-1.08-3.32V127h3.25v6.45a2.27,2.27,0,0,0,.45,1.54,1.71,1.71,0,0,0,1.35.51,2.15,2.15,0,0,0,1.69-.7,2.94,2.94,0,0,0,.62-2V127h3.26v11.1h-3.09v-1.35a3.73,3.73,0,0,1-1.38,1.16A4.83,4.83,0,0,1,144.72,138.34Z"/><path d="M156.78,142.54a7,7,0,0,1-1.62-.19,5.32,5.32,0,0,1-1.37-.47l.87-2.43c.28.11.59.21.91.3a4,4,0,0,0,1,.13,2.43,2.43,0,0,0,.77-.12,3,3,0,0,0,.69-.34,2.44,2.44,0,0,0,.55-.56L154.05,127h3.49l2.52,8,2.55-8h3.47l-4.22,11.1a9.13,9.13,0,0,1-1.38,2.58,5.05,5.05,0,0,1-1.73,1.42A4.57,4.57,0,0,1,156.78,142.54Z"/><path d="M172.53,138.34a8.55,8.55,0,0,1-2.43-.35,9,9,0,0,1-2.29-1.07l1.11-2.35a11.2,11.2,0,0,0,2.05,1,5.14,5.14,0,0,0,1.63.32,2.62,2.62,0,0,0,1.27-.24.77.77,0,0,0,.43-.73.76.76,0,0,0-.28-.62,2.5,2.5,0,0,0-1-.33l-1.46-.25a5,5,0,0,1-2.54-1.09,2.66,2.66,0,0,1-.84-2,3.57,3.57,0,0,1,2.05-3.29,6.16,6.16,0,0,1,2.7-.51,8.06,8.06,0,0,1,2.31.33,9.21,9.21,0,0,1,2.05.89l-1.08,2.25a12.14,12.14,0,0,0-1.6-.71,4.46,4.46,0,0,0-1.57-.31,2.17,2.17,0,0,0-1.15.24.73.73,0,0,0-.38.68.59.59,0,0,0,.25.5,2.21,2.21,0,0,0,.93.3l1.46.26a5.22,5.22,0,0,1,2.6,1.12,2.84,2.84,0,0,1,.9,2.21,3.43,3.43,0,0,1-1.28,2.73A5.84,5.84,0,0,1,172.53,138.34Z"/><path class="cls-2" d="M12.2,137.34a8.89,8.89,0,0,1-4.42-1.05,7.28,7.28,0,0,1-2.89-2.88,9.08,9.08,0,0,1,0-8.38,7.37,7.37,0,0,1,2.9-2.88,8.87,8.87,0,0,1,4.4-1.05,11.33,11.33,0,0,1,3.08.42,9.28,9.28,0,0,1,2.82,1.31l-1.22,2.61a11,11,0,0,0-2.34-1,8.33,8.33,0,0,0-2.34-.34,4.88,4.88,0,0,0-2.53.64A4.26,4.26,0,0,0,8,126.53a6.19,6.19,0,0,0,0,5.36,4.34,4.34,0,0,0,1.7,1.8,4.79,4.79,0,0,0,2.53.65,5.16,5.16,0,0,0,2-.36,4.32,4.32,0,0,0,1.5-1v-2.17H12v-2.69h7.15v6a7.14,7.14,0,0,1-2.82,2.42A9.27,9.27,0,0,1,12.2,137.34Z"/><path class="cls-2" d="M23.84,137.11V124.34H19.26v-3H31.89v3h-4.6v12.77Z"/><path class="cls-2" d="M29.86,137.11,36,121.34h3.8l6.14,15.77H42.16l-1-2.77H34.6l-1,2.77Zm5.66-5.6h4.72l-2.33-6.58Z"/><path class="cls-4" d="M55.26,137.11V121.34H62a7,7,0,0,1,4.47,1.23,4.4,4.4,0,0,1,1.55,3.68,4.55,4.55,0,0,1-1,3.08,5,5,0,0,1-2.78,1.54l4.55,6.24h-4l-4.11-6h-2v6Zm3.44-8.69h2.76a4.31,4.31,0,0,0,2.38-.51,1.85,1.85,0,0,0,.74-1.64,1.87,1.87,0,0,0-.73-1.66,4.31,4.31,0,0,0-2.39-.51H58.7Z"/><path class="cls-4" d="M77.07,137.34a7.47,7.47,0,0,1-3.14-.65,5.33,5.33,0,0,1-2.27-1.93,5.68,5.68,0,0,1-.85-3.2,5.86,5.86,0,0,1,.78-3.07,5.41,5.41,0,0,1,2.1-2,6.2,6.2,0,0,1,3-.7,6.63,6.63,0,0,1,2.94.61,4.77,4.77,0,0,1,2,1.71,4.47,4.47,0,0,1,.71,2.51,4.1,4.1,0,0,1-.12.94,3.91,3.91,0,0,1-.3.86H74.14a2.66,2.66,0,0,0,.52,1.26,2.44,2.44,0,0,0,1.11.77,4.76,4.76,0,0,0,1.63.26,5.37,5.37,0,0,0,1.81-.3,7.08,7.08,0,0,0,1.61-.79l1,2.29A8.1,8.1,0,0,1,79.6,137,8.69,8.69,0,0,1,77.07,137.34Zm-2.93-7.06h4.79a.15.15,0,0,0,0-.09v-.14a1.81,1.81,0,0,0-.23-.93,1.64,1.64,0,0,0-.72-.62,3,3,0,0,0-1.24-.22,2.92,2.92,0,0,0-1.24.25,2.32,2.32,0,0,0-.91.69A2.43,2.43,0,0,0,74.14,130.28Z"/><path class="cls-4" d="M85.59,137.11V126h3.09v1.35a3.53,3.53,0,0,1,1.37-1.16,4.74,4.74,0,0,1,2.12-.42,4,4,0,0,1,3,1.07,4.47,4.47,0,0,1,1.09,3.32v6.94H93v-6.45a2.25,2.25,0,0,0-.44-1.54,1.68,1.68,0,0,0-1.35-.51,2.17,2.17,0,0,0-1.69.69,2.93,2.93,0,0,0-.63,2v5.79Z"/><path class="cls-4" d="M105.6,137.34a6.71,6.71,0,0,1-3.15-.72,5.35,5.35,0,0,1-2.16-2,6.31,6.31,0,0,1,0-6.08,5.41,5.41,0,0,1,2.15-2,7.32,7.32,0,0,1,6.33,0,5.38,5.38,0,0,1,2.14,2,6.31,6.31,0,0,1,0,6.08,5.36,5.36,0,0,1-2.14,2A6.73,6.73,0,0,1,105.6,137.34Zm0-2.83a2.84,2.84,0,0,0,1.45-.36,2.34,2.34,0,0,0,1-1,3.82,3.82,0,0,0,0-3.15,2.45,2.45,0,0,0-1-1,3.18,3.18,0,0,0-2.9,0,2.45,2.45,0,0,0-1,1,3.82,3.82,0,0,0,0,3.15,2.34,2.34,0,0,0,1,1A2.86,2.86,0,0,0,105.6,134.51Z"/><path class="cls-2" d="M129.23,137.34a9,9,0,0,1-4.43-1.05,7.34,7.34,0,0,1-2.89-2.88,9.16,9.16,0,0,1,0-8.38,7.46,7.46,0,0,1,2.91-2.88,8.87,8.87,0,0,1,4.4-1.05,11.39,11.39,0,0,1,3.08.42,9.28,9.28,0,0,1,2.82,1.31l-1.23,2.61a10.91,10.91,0,0,0-2.33-1,8.33,8.33,0,0,0-2.34-.34,4.92,4.92,0,0,0-2.54.64,4.32,4.32,0,0,0-1.7,1.79,6.29,6.29,0,0,0,0,5.36,4.41,4.41,0,0,0,1.7,1.8,4.83,4.83,0,0,0,2.54.65,5.2,5.2,0,0,0,2-.36,4.32,4.32,0,0,0,1.5-1v-2.17H129v-2.69h7.16v6a7.14,7.14,0,0,1-2.82,2.42A9.3,9.3,0,0,1,129.23,137.34Z"/><path class="cls-2" d="M143.72,137.34a4,4,0,0,1-2.95-1.07,4.51,4.51,0,0,1-1.08-3.32V126h3.25v6.45a2.27,2.27,0,0,0,.45,1.54,1.71,1.71,0,0,0,1.35.51,2.15,2.15,0,0,0,1.69-.7,2.94,2.94,0,0,0,.62-2V126h3.26v11.1h-3.09v-1.35a3.73,3.73,0,0,1-1.38,1.16A4.83,4.83,0,0,1,143.72,137.34Z"/><path class="cls-2" d="M155.78,141.54a7,7,0,0,1-1.62-.19,5.32,5.32,0,0,1-1.37-.47l.87-2.43c.28.11.59.21.91.3a4,4,0,0,0,1,.13,2.43,2.43,0,0,0,.77-.12,3,3,0,0,0,.69-.34,2.44,2.44,0,0,0,.55-.56L153.05,126h3.49l2.52,8,2.55-8h3.47l-4.22,11.1a9.13,9.13,0,0,1-1.38,2.58,5.05,5.05,0,0,1-1.73,1.42A4.57,4.57,0,0,1,155.78,141.54Z"/><path class="cls-2" d="M171.53,137.34a8.55,8.55,0,0,1-2.43-.35,9,9,0,0,1-2.29-1.07l1.11-2.35a11.2,11.2,0,0,0,2.05,1,5.14,5.14,0,0,0,1.63.32,2.62,2.62,0,0,0,1.27-.24.77.77,0,0,0,.43-.73.76.76,0,0,0-.28-.62,2.5,2.5,0,0,0-1-.33l-1.46-.25a5,5,0,0,1-2.54-1.09,2.66,2.66,0,0,1-.84-2,3.57,3.57,0,0,1,2.05-3.29,6.16,6.16,0,0,1,2.7-.51,8.06,8.06,0,0,1,2.31.33,9.21,9.21,0,0,1,2.05.89l-1.08,2.25a12.14,12.14,0,0,0-1.6-.71,4.46,4.46,0,0,0-1.57-.31,2.17,2.17,0,0,0-1.15.24.73.73,0,0,0-.38.68.59.59,0,0,0,.25.5,2.21,2.21,0,0,0,.93.3l1.46.26a5.22,5.22,0,0,1,2.6,1.12,2.84,2.84,0,0,1,.9,2.21,3.43,3.43,0,0,1-1.28,2.73A5.84,5.84,0,0,1,171.53,137.34Z"/></svg>